<?xml version="1.0" standalone="no"?><!DOCTYPE svg PUBLIC "-//W3C//DTD SVG 1.1//EN" "http://www.w3.org/Graphics/SVG/1.1/DTD/svg11.dtd"><svg t="1779712938566" class="icon" viewBox="0 0 1024 1024" version="1.1" xmlns="http://www.w3.org/2000/svg" p-id="6565" xmlns:xlink="http://www.w3.org/1999/xlink" width="200" height="200"><path d="M512 512m-512 0a512 512 0 1 0 1024 0 512 512 0 1 0-1024 0Z" fill="#FFC230" p-id="6566"></path><path d="M609.122462 236.819692a20.322462 20.322462 0 0 1 10.121846 39.384616 80.935385 80.935385 0 1 0 77.430154 135.60123 20.322462 20.322462 0 0 1 28.711384 28.75077 121.462154 121.462154 0 0 1-145.998769 19.692307l-102.715077 59.273847a79.950769 79.950769 0 0 1-4.608 11.815384l61.912615 107.244308h6.971077a162.579692 162.579692 0 0 1 158.28677 125.558154h85.504a20.322462 20.322462 0 1 1 0 40.605538H256.630154a20.322462 20.322462 0 0 1 0-40.605538h126.030769a162.461538 162.461538 0 0 1 53.681231-87.394462l-58.840616-101.927384a81.250462 81.250462 0 1 1 39.778462-157.538462l100.706462-58.131692a121.619692 121.619692 0 0 1 91.05723-122.328616z m-68.135385 442.407385a122.092308 122.092308 0 0 0-116.224 85.070769h232.369231a122.092308 122.092308 0 0 0-116.145231-85.070769z m-97.043692-115.278769a80.541538 80.541538 0 0 1-20.125539 9.767384l46.631385 80.935385a161.792 161.792 0 0 1 20.913231-8.349539l-47.537231-82.313846z m-45.13477-107.992616a40.605538 40.605538 0 1 0 40.605539 40.605539 40.605538 40.605538 0 0 0-40.605539-40.605539z m59.076923-15.005538a81.132308 81.132308 0 0 1 18.550154 31.901538l69.71077-40.211692a121.540923 121.540923 0 0 1-19.101539-31.507692l-69.12 39.936z" fill="#FFFFFF" p-id="6567"></path></svg>